<?xml version="1.0" encoding="UTF-8" standalone="no"?>
<!DOCTYPE svg PUBLIC "-//W3C//DTD SVG 1.1//EN"
 "http://www.w3.org/Graphics/SVG/1.1/DTD/svg11.dtd">
<!-- Generated by graphviz version 2.40.1 (20161225.0304)
 -->
<!-- Title: %3 Pages: 1 -->
<svg width="470pt" height="355pt"
 viewBox="0.00 0.00 469.92 355.00" xmlns="http://www.w3.org/2000/svg" xmlns:xlink="http://www.w3.org/1999/xlink">
<g id="graph0" class="graph" transform="scale(1 1) rotate(0) translate(4 351)">
<title>%3</title>
<polygon fill="#333333" stroke="transparent" points="-4,4 -4,-351 465.9167,-351 465.9167,4 -4,4"/>
<text text-anchor="middle" x="230.9583" y="-9.2" font-family="Times,serif" font-size="16.00" fill="#ffffff">Network Map</text>
<!-- R3 -->
<g id="node1" class="node">
<title>R3</title>
<polygon fill="#006699" stroke="#006699" points="153.9167,-223 77.9167,-223 77.9167,-150 153.9167,-150 153.9167,-223"/>
<text text-anchor="middle" x="115.9167" y="-182.8" font-family="Helvetica,sans-Serif" font-size="14.00" fill="#ffffff">R3</text>
</g>
<!-- R5 -->
<g id="node2" class="node">
<title>R5</title>
<polygon fill="#006699" stroke="#006699" points="92.9167,-347 16.9167,-347 16.9167,-274 92.9167,-274 92.9167,-347"/>
<text text-anchor="middle" x="54.9167" y="-306.8" font-family="Helvetica,sans-Serif" font-size="14.00" fill="#ffffff">R5</text>
</g>
<!-- R3&#45;&#45;R5 -->
<g id="edge6" class="edge">
<title>R3&#45;&#45;R5</title>
<path fill="none" stroke="#00ff00" stroke-dasharray="5,2" d="M77.6416,-212.6558C68.91,-220.6538 60.7787,-230.2254 55.9167,-241 51.3504,-251.1193 49.9369,-262.9413 50,-273.9353"/>
<text text-anchor="middle" x="105.9167" y="-244.8" font-family="Courier,monospace" font-size="14.00" fill="#ffffff"> &#160;&#160;&#160;&#160;&#160;&#160;&#160;&#160;&#160;&#160;&#160;</text>
<text text-anchor="middle" x="25" y="-262.7353" font-family="Courier,monospace" font-size="14.00" fill="#ffffff">Eth0/0</text>
<text text-anchor="middle" x="52.6416" y="-201.4558" font-family="Courier,monospace" font-size="14.00" fill="#ffffff">Eth0/2</text>
</g>
<!-- R4 -->
<g id="node7" class="node">
<title>R4</title>
<polygon fill="#006699" stroke="#006699" points="215.9167,-347 139.9167,-347 139.9167,-274 215.9167,-274 215.9167,-347"/>
<text text-anchor="middle" x="177.9167" y="-306.8" font-family="Helvetica,sans-Serif" font-size="14.00" fill="#ffffff">R4</text>
</g>
<!-- R3&#45;&#45;R4 -->
<g id="edge5" class="edge">
<title>R3&#45;&#45;R4</title>
<path fill="none" stroke="#00ff00" stroke-dasharray="5,2" d="M145.3598,-223.2843C149.2246,-229.0244 152.8877,-235.035 155.9167,-241 161.1311,-251.269 165.4183,-263.0192 168.7785,-273.9001"/>
<text text-anchor="middle" x="212.9167" y="-244.8" font-family="Courier,monospace" font-size="14.00" fill="#ffffff"> &#160;&#160;&#160;&#160;&#160;&#160;&#160;&#160;&#160;&#160;&#160;</text>
<text text-anchor="middle" x="143.7785" y="-262.7001" font-family="Courier,monospace" font-size="14.00" fill="#ffffff">Eth0/0</text>
<text text-anchor="middle" x="120.3598" y="-227.0843" font-family="Courier,monospace" font-size="14.00" fill="#ffffff">Eth0/1</text>
</g>
<!-- SW2 -->
<g id="node3" class="node">
<title>SW2</title>
<polygon fill="#006699" stroke="#006699" points="406.4167,-347 317.4167,-347 317.4167,-274 406.4167,-274 406.4167,-347"/>
<text text-anchor="middle" x="361.9167" y="-306.8" font-family="Helvetica,sans-Serif" font-size="14.00" fill="#ffffff">SW2</text>
</g>
<!-- R1 -->
<g id="node4" class="node">
<title>R1</title>
<polygon fill="#006699" stroke="#006699" points="276.9167,-223 200.9167,-223 200.9167,-150 276.9167,-150 276.9167,-223"/>
<text text-anchor="middle" x="238.9167" y="-182.8" font-family="Helvetica,sans-Serif" font-size="14.00" fill="#ffffff">R1</text>
</g>
<!-- R2 -->
<g id="node5" class="node">
<title>R2</title>
<polygon fill="#006699" stroke="#006699" points="399.9167,-223 323.9167,-223 323.9167,-150 399.9167,-150 399.9167,-223"/>
<text text-anchor="middle" x="361.9167" y="-182.8" font-family="Helvetica,sans-Serif" font-size="14.00" fill="#ffffff">R2</text>
</g>
<!-- R2&#45;&#45;SW2 -->
<g id="edge4" class="edge">
<title>R2&#45;&#45;SW2</title>
<path fill="none" stroke="#00ff00" stroke-dasharray="5,2" d="M361.9167,-223.0334C361.9167,-239.0358 361.9167,-257.7778 361.9167,-273.7992"/>
<text text-anchor="middle" x="411.9167" y="-244.8" font-family="Courier,monospace" font-size="14.00" fill="#ffffff"> &#160;&#160;&#160;&#160;&#160;&#160;&#160;&#160;&#160;&#160;&#160;</text>
<text text-anchor="middle" x="332.9167" y="-262.5992" font-family="Courier,monospace" font-size="14.00" fill="#ffffff">Eth0/11</text>
<text text-anchor="middle" x="336.9167" y="-226.8334" font-family="Courier,monospace" font-size="14.00" fill="#ffffff">Eth0/1</text>
</g>
<!-- SW1 -->
<g id="node6" class="node">
<title>SW1</title>
<polygon fill="#006699" stroke="#006699" points="283.4167,-99 194.4167,-99 194.4167,-26 283.4167,-26 283.4167,-99"/>
<text text-anchor="middle" x="238.9167" y="-58.8" font-family="Helvetica,sans-Serif" font-size="14.00" fill="#ffffff">SW1</text>
</g>
<!-- SW1&#45;&#45;R3 -->
<g id="edge3" class="edge">
<title>SW1&#45;&#45;R3</title>
<path fill="none" stroke="#00ff00" stroke-dasharray="5,2" d="M194.2427,-76.4893C173.4659,-85.1046 150.0582,-98.179 134.9167,-117 127.3894,-126.3564 122.8357,-138.4689 120.0839,-149.9547"/>
<text text-anchor="middle" x="184.9167" y="-120.8" font-family="Courier,monospace" font-size="14.00" fill="#ffffff"> &#160;&#160;&#160;&#160;&#160;&#160;&#160;&#160;&#160;&#160;&#160;</text>
<text text-anchor="middle" x="95.0839" y="-138.7547" font-family="Courier,monospace" font-size="14.00" fill="#ffffff">Eth0/0</text>
<text text-anchor="middle" x="169.2427" y="-65.2893" font-family="Courier,monospace" font-size="14.00" fill="#ffffff">Eth0/3</text>
</g>
<!-- SW1&#45;&#45;R1 -->
<g id="edge1" class="edge">
<title>SW1&#45;&#45;R1</title>
<path fill="none" stroke="#00ff00" stroke-dasharray="5,2" d="M238.9167,-99.0334C238.9167,-115.0358 238.9167,-133.7778 238.9167,-149.7992"/>
<text text-anchor="middle" x="288.9167" y="-120.8" font-family="Courier,monospace" font-size="14.00" fill="#ffffff"> &#160;&#160;&#160;&#160;&#160;&#160;&#160;&#160;&#160;&#160;&#160;</text>
<text text-anchor="middle" x="213.9167" y="-138.5992" font-family="Courier,monospace" font-size="14.00" fill="#ffffff">Eth0/0</text>
<text text-anchor="middle" x="213.9167" y="-102.8334" font-family="Courier,monospace" font-size="14.00" fill="#ffffff">Eth0/1</text>
</g>
<!-- SW1&#45;&#45;R2 -->
<g id="edge2" class="edge">
<title>SW1&#45;&#45;R2</title>
<path fill="none" stroke="#00ff00" stroke-dasharray="5,2" d="M283.5332,-77.7075C303.2537,-86.4447 325.2455,-99.2699 339.9167,-117 347.6624,-126.3607 352.6925,-138.4743 355.9546,-149.9598"/>
<text text-anchor="middle" x="398.9167" y="-120.8" font-family="Courier,monospace" font-size="14.00" fill="#ffffff"> &#160;&#160;&#160;&#160;&#160;&#160;&#160;&#160;&#160;&#160;&#160;</text>
<text text-anchor="middle" x="330.9546" y="-138.7598" font-family="Courier,monospace" font-size="14.00" fill="#ffffff">Eth0/0</text>
<text text-anchor="middle" x="308.5332" y="-66.5075" font-family="Courier,monospace" font-size="14.00" fill="#ffffff">Eth0/2</text>
</g>
</g>
</svg>
